<?xml version="1.0" encoding="UTF-8"?>
<svg width="160px" height="27px" viewBox="0 0 160 27" version="1.1" xmlns="http://www.w3.org/2000/svg" xmlns:xlink="http://www.w3.org/1999/xlink">
    <title>Fill 1 Copy</title>
    <g id="Page-1" stroke="none" stroke-width="1" fill="none" fill-rule="evenodd">
        <g id="ðŸ–¥ï¸NavBar/MAIN-ELEMENT" transform="translate(-40.000000, -23.000000)" fill="#2BAAE1">
            <path d="M198.585017,31.0568317 C197.75903,29.572919 195.990788,28.4367036 194.062197,28.4367036 C192.373854,28.4367036 190.881675,29.1354044 190.881675,30.9284427 C190.881675,32.44707 192.754061,33.4736313 194.704693,34.7338275 C196.838265,36.0684122 199.045124,37.7143266 199.045124,40.5620284 C199.045124,44.2880655 195.427088,46.5676597 191.239842,46.5676597 C189.518437,46.5676597 187.716583,46.2409013 185.694869,45.4744243 L186.026035,40.509681 C187.005208,42.4867619 188.827451,44.0588388 191.522519,44.0588388 C193.598233,44.0588388 195.144412,43.0543186 195.144412,41.3026072 C195.144412,39.8197965 193.880909,38.8968282 192.344098,37.9672475 C189.112882,36.0160648 187.052045,34.4566615 187.052045,31.6205312 C187.052045,27.3886523 190.597346,25.9730668 194.267179,25.9730668 C196.401853,25.9730668 197.736438,26.3681523 199.100227,26.3681523 L198.585017,31.0568317 Z M180.633696,35.5047127 C180.169732,36.2778021 179.581236,37.3247513 179.226927,38.0994937 C178.911189,39.5580592 178.759106,41.5130991 178.759106,43.6731206 C178.759106,44.5718439 178.911189,45.7780396 179.321152,46.1841457 L173.953058,46.1841457 C174.906884,45.2870755 175.292051,39.7685511 175.23805,38.020697 C174.517308,35.5228966 173.544197,33.1419137 172.050916,30.2374562 C171.109764,28.4163156 169.994488,26.6954617 169.306256,26.3681523 C170.513554,26.2573961 172.050916,26.1846607 172.79921,26.1846607 C174.139305,26.1846607 174.490859,26.3681523 175.31299,28.1545783 C176.599084,31.0568317 177.555114,33.2444045 178.114405,34.8677268 C179.475439,32.7286443 180.429816,31.2629154 181.666318,29.2665486 C181.971587,28.7739314 182.227814,28.1545783 182.227814,27.5660826 C182.227814,27.1070781 182.147915,26.5891137 181.945137,26.3681523 L187.255925,26.3681523 C186.232119,26.5891137 181.609012,33.8637576 180.633696,35.5047127 L180.633696,35.5047127 Z M161.962183,31.0094435 L158.778356,37.9165531 L163.962958,37.9165531 L161.962183,31.0094435 L161.962183,31.0094435 Z M168.197041,46.3748006 C166.510351,46.3748006 166.379758,46.319698 165.012112,41.6481005 L164.529964,39.9173281 C163.701772,40.3091075 162.245411,40.488742 159.909612,40.488742 L157.54516,40.488742 L157.137401,41.3593629 C156.543395,42.6686004 155.744407,44.2092688 155.744407,45.2870755 C155.744407,45.5444046 155.775265,45.8265299 155.874449,46.1841457 L141.850289,46.1841457 C142.647073,45.2870755 142.901646,42.3870262 143.286814,37.1225248 L143.372774,35.8656347 C143.570592,32.8592374 143.724328,30.5471327 143.701185,28.9232594 C143.674736,27.5969401 143.544143,26.7411969 143.181568,26.3681523 L148.608071,26.3681523 C147.83939,26.9544439 147.553407,30.1338633 147.19524,35.3994668 L147.08779,36.6602141 C146.96436,38.6102947 146.704276,40.6248454 146.704276,42.5644565 C146.704276,43.4626288 147.065198,43.6731206 147.990371,43.6731206 C151.27724,43.6731206 152.10433,43.5970791 153.587141,42.5909058 C154.517272,40.9009094 155.565324,38.7607248 156.594089,36.5626825 L157.981572,33.6031224 C159.291912,30.8265029 160.574149,28.0019441 160.574149,27.4652449 C160.574149,27.0751186 160.475515,26.7186048 160.318473,26.3681523 L164.63521,26.3681523 C164.63521,26.3681523 166.379758,32.8316861 166.764925,34.2202714 L167.609648,37.3462413 C169.072621,42.6217632 169.994488,45.1829316 171.231541,46.1841457 C170.20498,46.319698 168.738149,46.3748006 168.197041,46.3748006 L168.197041,46.3748006 Z M133.245469,46.5676597 C128.136908,46.5676597 125.183409,42.3638831 125.183409,37.637734 C125.183409,31.0568317 128.752403,25.9730668 135.558675,25.9730668 C137.685635,25.9730668 138.694013,26.3681523 140.41652,26.3681523 L139.899657,31.4216108 C138.923791,29.6467564 137.334632,28.4367036 135.194998,28.4367036 C130.962017,28.4367036 129.238408,33.0146267 129.238408,36.9401352 C129.238408,41.2094839 131.630412,43.5425275 134.813688,43.5425275 C136.537297,43.5425275 138.049312,43.0807678 140.591746,41.3026072 C139.563532,44.5982931 137.176487,46.5676597 133.245469,46.5676597 L133.245469,46.5676597 Z M115.527782,28.7739314 C115.036818,28.7739314 114.450526,28.7739314 113.984358,28.8262789 C113.831724,29.6698995 113.702784,31.1356284 113.525354,33.4995295 L113.416802,34.8864617 C113.676886,34.9344009 114.008604,34.9630543 114.317729,34.9630543 C116.786325,34.9630543 118.477975,33.4736313 118.477975,31.2171802 C118.477975,29.6698995 117.400719,28.7739314 115.527782,28.7739314 L115.527782,28.7739314 Z M122.692772,47.0365827 C121.226492,47.0365827 120.872733,46.8023967 120.382871,46.1312472 L114.827979,38.4350685 C114.395975,37.8366543 114.0604,37.3462413 113.370516,37.3462413 L113.243229,37.3462413 L113.139636,38.8378684 C113.007941,40.8744601 112.934103,42.4867619 112.934103,43.6979168 C112.95394,45.0291954 113.110982,45.851877 113.473006,46.1841457 L108.105463,46.1841457 C108.873042,45.4975674 109.162331,43.1827076 109.600947,37.1225248 L109.670377,35.8656347 C109.875909,32.8851356 110.027992,30.573031 110.008156,28.95577 C109.985563,27.5407355 109.829623,26.6728697 109.44115,26.3681523 L116.758223,26.3681523 C119.149124,26.3681523 122.434341,26.7720543 122.434341,30.6485215 C122.434341,33.8367574 120.30187,35.5779992 117.663007,36.4001298 C117.91703,36.6348669 118.374933,37.2206074 118.658711,37.5859376 L122.692772,42.9297867 C125.208756,46.2409013 125.413187,46.3924335 126.310808,46.8558462 C125.183409,46.9853373 123.66919,47.0365827 122.692772,47.0365827 L122.692772,47.0365827 Z M97.6789511,31.0094435 L94.4670211,37.9165531 L99.6797261,37.9165531 L97.6789511,31.0094435 L97.6789511,31.0094435 Z M103.918768,46.3748006 C102.22216,46.3748006 102.091566,46.319698 100.732737,41.6481005 L100.244528,39.9173281 C99.4246011,40.3091075 97.9638315,40.488742 95.6208694,40.488742 L93.2602744,40.488742 L92.8525152,41.3593629 C92.4353886,42.2795762 91.4396848,44.1828196 91.4622769,45.2870755 C91.4622769,45.5444046 91.4887261,45.8000806 91.5901149,46.1841457 L86.8375165,46.1841457 C88.2057139,44.828622 89.9183023,41.6673864 92.3042445,36.5626825 L93.6939318,33.6031224 C94.9519239,30.9284427 96.2903658,27.9016574 96.2903658,27.4652449 C96.2903658,27.0751186 96.187875,26.7186048 96.0319347,26.3681523 L100.348672,26.3681523 C100.348672,26.3681523 101.474417,30.6485215 102.480591,34.2202714 L103.329722,37.3462413 C104.796002,42.6217632 105.719521,45.1829316 106.946105,46.1841457 C105.845706,46.319698 104.455468,46.3748006 103.918768,46.3748006 L103.918768,46.3748006 Z M79.4658921,28.7518904 C79.081276,28.7518904 78.5688219,28.7518904 78.0773068,28.8025848 C77.8761824,30.1823536 77.7477933,31.5218976 77.6447515,32.9865244 C77.6447515,32.9865244 77.569812,34.2456186 77.569812,34.1921691 L78.0773068,34.1921691 C80.5971483,34.1921691 82.9120081,33.3160379 82.9120081,31.0094435 C82.9120081,29.6698995 81.8055481,28.7518904 79.4658921,28.7518904 L79.4658921,28.7518904 Z M78.8267021,36.6100707 L77.4199329,36.6100707 L77.209441,39.5338141 C77.1097054,40.8155003 77.0546028,41.893858 77.0314597,43.1827076 C77.0314597,43.361791 77.5929551,43.744203 78.9258867,43.744203 C81.697547,43.744203 83.5324632,42.3638831 83.5324632,40.0765746 C83.5324632,37.531386 81.4468302,36.6100707 78.8267021,36.6100707 L78.8267021,36.6100707 Z M79.1314194,46.1841457 L72.1989626,46.1841457 C73.0739917,45.4143625 73.3037695,42.4107203 73.6834263,37.1225248 L73.7682843,35.8854716 C73.9705108,32.8851356 74.1319614,30.573031 74.102206,28.95577 C74.0746547,27.5660826 73.9187144,26.6728697 73.5357514,26.3681523 L81.2875837,26.3681523 C83.1384797,26.3681523 86.8375165,26.4651329 86.8375165,30.3173549 C86.8375165,32.8851356 84.4532275,34.4764984 82.2640016,35.042953 C85.3536038,35.3487724 87.6607492,36.8392975 87.6607492,40.02037 C87.6607492,43.4626288 84.4234721,46.1841457 79.1314194,46.1841457 L79.1314194,46.1841457 Z M42.3454815,42.2531269 C42.3399712,42.2437595 42.334461,42.2349431 42.3300528,42.2272287 C41.7856392,41.3378729 41.2935731,40.3129647 40.8918752,39.2395663 C40.5017488,38.2014335 40.2317462,37.23273 40.0917856,35.6149179 C40.0074786,34.6434593 39.9463147,33.5689588 40.0702956,32.29664 C40.1953784,30.998974 40.5381166,29.7823088 40.9855496,28.8455648 C41.3591451,28.063659 41.8093333,27.4988575 42.3223384,27.062996 C42.5928921,26.8332182 43.2089391,26.4722962 43.5874939,26.3560298 C43.9831305,26.2348041 44.4801558,26.1973343 44.7011172,26.2039466 C45.2973272,26.2226815 46.6842594,26.3946016 46.6418304,26.9974239 C46.6230955,27.2674266 45.4339817,29.4908161 47.6364322,29.8126152 C49.5495941,29.9239225 50.3243365,29.0362197 50.5298692,27.5192454 C50.6103189,26.9268926 50.6863605,26.4287652 50.3050506,25.8127182 C50.037252,25.381265 49.2740811,25.12614 48.7158919,25.1283441 C48.2166624,25.1305482 47.95217,25.2600393 47.7929235,25.4270001 C47.7863112,25.402755 47.7510456,25.361428 47.7416781,25.3382849 C47.6849224,25.2032836 47.6347791,25.0506494 47.6843714,24.7767896 C47.7427802,24.4533374 48.0001093,24.1497221 48.1356616,24.041721 C48.4266033,23.8086371 48.7550147,23.5876757 49.2867547,23.4758174 C49.5385736,23.4229189 49.804168,23.3755307 50.1022731,23.3755307 C50.165641,23.3755307 50.377235,23.3744286 50.4720114,23.382143 C50.5133384,23.3848981 50.5193997,23.3667143 50.5497061,23.3303466 C50.7320957,23.1093852 51.0191801,22.9887105 51.5426548,23.0008331 C51.9449037,23.0096495 52.4816029,23.0300375 52.9036887,23.1655898 C53.2789374,23.2862645 53.4690413,23.4019799 53.6877986,23.5435936 C53.9412705,23.7077993 54.2052119,24.0516395 54.3181722,24.3794999 C54.4862351,24.8682599 54.5826646,25.4771435 54.6074608,26.1791505 C54.6366652,27.5798583 54.8355855,28.4306423 55.2273649,28.9375861 C55.8599427,29.7553085 56.7537067,29.8732281 57.4270603,29.8137173 L57.4265093,29.8126152 C59.6284088,29.4908161 58.4398459,27.2674266 58.42056,26.9974239 C58.378131,26.3946016 59.7650632,26.2226815 60.3612732,26.2039466 C60.5827856,26.1973343 61.079811,26.2348041 61.4748965,26.3560298 C61.8534513,26.4722962 62.4700493,26.8332182 62.740603,27.062996 C63.2530571,27.4988575 63.7032453,28.063659 64.0768408,28.8455648 C64.5248249,29.7823088 64.867563,30.998974 64.9920949,32.29664 C65.1166267,33.5689588 65.0554628,34.6434593 64.9711559,35.6149179 C64.8311953,37.23273 64.5606416,38.2014335 64.1705152,39.2395663 C63.7688174,40.3129647 63.2767512,41.3378729 62.7328887,42.2272287 C62.7279294,42.2349431 62.7229702,42.2437595 62.7174599,42.2531269 L62.719113,42.254229 C61.5299991,41.4133634 60.7739916,40.7829898 60.2874357,39.7696532 C60.1783326,39.5431815 59.8400027,39.5227936 59.7578999,39.7602858 C59.3077117,41.0645641 61.2798334,44.2704327 61.1283013,44.4599856 C60.8158696,44.8346832 58.2166804,42.4751903 56.9349942,39.1398306 C56.8490341,38.9172161 56.5492761,38.8813994 56.420336,39.0819729 C55.5530212,40.4402517 57.951637,44.9388271 58.888932,46.170921 C58.9875656,46.3004121 58.9644226,46.4750873 58.8327274,46.5709658 C57.3796721,47.6316907 55.3618152,49.0092554 52.5311952,50 C49.7011262,49.0092554 47.6827183,47.6316907 46.229663,46.5709658 C46.0979679,46.4750873 46.0748248,46.3004121 46.1734584,46.170921 C47.1107535,44.9388271 49.5093692,40.4402517 48.6420544,39.0819729 C48.5131144,38.8813994 48.2133563,38.9172161 48.1279473,39.1398306 C46.846261,42.4751903 44.2470719,44.8346832 43.9340892,44.4599856 C43.782557,44.2704327 45.7552298,41.0645641 45.3044906,39.7602858 C45.2223877,39.5227936 44.8840578,39.5431815 44.7755057,39.7696532 C44.2889498,40.7829898 43.5323913,41.4133634 42.3432774,42.254229 L42.3454815,42.2531269 Z" id="Fill-1-Copy"></path>
        </g>
    </g>
</svg>